<?xml version="1.0" encoding="UTF-8"?>
<svg id="_π_ÃæÓ_1" data-name="∑π¿ÃæÓ_1" xmlns="http://www.w3.org/2000/svg" viewBox="0 0 100 82.37">
  <path d="m57.89,45.24c.65.04,1.25-.95,1.33-2.21.08-1.26-.39-2.31-1.04-2.35-.65-.04-1.25.95-1.33,2.2-.08,1.26.39,2.31,1.04,2.35Z"/>
  <path d="m47.6,62.55c-.81-.78-1.65-1.52-2.56-2.17-.58-.42-1.2-.8-1.87-1.06-.4-.16-.84-.28-1.28-.26-.57.03-1.16.36-1.32.94-.05.18-.01.35.2.46.1.05.22.03.32-.02.26-.13.38-.23.65-.34.21-.09.45-.11.68-.1.62.03,1.24.27,1.8.53.66.3,1.28.67,1.89,1.06.5.32,1,.67,1.47,1.03.12.09.23.18.35.28-.03-.03-.05-.06-.07-.08-.09-.09-.18-.17-.27-.26Z"/>
  <path d="m43.44,62.71c-.13-.05-.27-.09-.41-.12-.19-.03-.38-.01-.5.09-.25.21.33.49.47.55.28.13.58.2.88.21.07,0,.17.01.24-.01.12-.04.05-.14,0-.21-.18-.23-.41-.4-.68-.51Z"/>
  <path d="m43,55.98c-4.32-.32-3.21-3.72-3.21-3.72-3.06,3.97,1.51,4.67,1.51,4.67-1.66-.71,1.7-.96,1.7-.96Z"/>
  <path d="m47.35,31.54c.33.34.89.31,1.32.26.86-.09,1.59-.13,2.44.1.79.22,1.53.56,2.27.89.69.31,1.36.64,2.03.99.33.18.66.36.99.54.18.1.35.21.52.31.11.06.34.12.42.21-.53-.59-1.05-1.2-1.61-1.77-.94-.96-1.93-1.91-3.01-2.71-1.32-.97-3.09-1.88-4.66-.89-.52.33-1.22,1.01-.98,1.69.05.13.12.25.24.37Z"/>
  <path d="m37.54,28.73c-.74-.18-1.53.04-2.17.42-.88.53-1.57,1.31-2.22,2.09-.82.99-1.57,2.08-2.18,3.22.15-.11.3-.21.45-.32.9-.62,1.81-1.22,2.77-1.74.87-.48,1.74-.86,2.72-1.07.37-.08.74-.11,1.09-.27.33-.15.61-.39.77-.73.37-.78-.56-1.45-1.22-1.61Z"/>
  <path d="m68.78,47.31s.04.02.07.02c.12.04.25.07.38.07.85,0,1.76-.93,2.25-2.31.25-.7.35-1.42.27-2.01-.09-.72-.4-1.21-.91-1.39-.12-.04-.24-.07-.37-.07s-.26.02-.39.07c.18-.25.32-.56.49-.79.72-.94,1.48-1.97,2.57-2.48.32-.15.71-.23.94.1.15.21.18.49.16.74-.01.15-.03.31-.07.46-.02.1-.03.23-.07.34.13-.24.24-.49.31-.77.07-.25.11-.53.07-.78,0-.01,0-.03-.01-.04-.14-.72-1.05-.65-1.6-.47-.82.27-1.5.9-2.08,1.53-.1.12-.21.24-.31.36-1.09,1.31-2,2.88-2.43,4.55-.23.93-.38,2.42.71,2.87Z"/>
  <path d="m93.72,20.18c-5.07-7.04-12.38-12.38-20.33-15.75-1.89-.8-3.8-1.49-5.73-2.05C51.23-2.41,32.36-.09,18.55,10.39,5.48,20.3-5,39.43,2.6,55.71c7.46,15.96,27.6,22.85,44.13,20.59,1.58-.22,3.15-.52,4.7-.91,4.69-1.19,9.28-2.84,13.55-5.15,4.51-2.44,8.08-5.82,12.12-8.89,1.85-1.41,4.1-2.8,6.47-3.04,1.34-.14,2.95.29,3.5,1.65,1.17,2.92-2.98,6.24-4.83,7.85-2.07,1.79-4.35,3.31-6.66,4.78-.03.02-.06.04-.1.07.22-.1.45-.2.65-.3.56-.29,1.13-.58,1.69-.87,2.48-1.27,4.91-2.51,7.17-4.15,15.28-11.07,20.08-31.42,8.74-47.15ZM25.39,37.77c.04-.14.1-.3.14-.44.19.08.38.13.6.12,0,0-.27.18-.74.32Zm-.03,5.1c-.27-.14-.51-.27-.81-.37-.02-.01-.03-.01-.04-.01.06-.68.14-1.35.26-2.02.03.05.07.1.1.14.33.53.66,1.12.85,1.72.12.36.16.8-.36.55Zm29.54,21.63c-2.03,1.52-4.67,3.15-7.29,3.15-.92,0-1.85-.2-2.75-.69-3.65-1.98-7.9-2.69-11.41-4.98-1.83-1.19-3.39-2.75-4.71-4.46-2.42-3.21-3.86-7.1-4.26-11.07-.12-1.25-.11-2.51-.01-3.76.33.15.65.34.9.58.38.38.58.9.84,1.37.73,1.28,1.74,2.45,2.94,3.33,1.35,1,2.89,1.49,4.53,1.74.2.03.39.05.6.08,1.35.16,2.9.55,4.03-.47.03-.03.18-.14.18-.22.16.4.53.69.91.88.28.13.67.24,1,.19-.16-.08-.32-.16-.46-.26-.28-.2-.55-.45-.72-.74-.05-.09-.1-.19-.14-.28,0,0,1.79,0,2.02-.46-.9.05-1.87.03-2.23-.91-.33-.84-.65-1.69-1.01-2.51-.36-.82-.8-1.61-1.14-2.44-.09-.2-.15-.39-.22-.59-.19-.63,1.59-.66,1.85-.67-.71-.11-1.42-.34-2.05-.7-.71-.4-1.13-1.09-1.62-1.71-.6-.75-1.28-1.45-1.99-2.1-.71-.63-1.53-1.19-2.5-1.29-.69-.07-1.47.07-2.07.42-.63.36-1.21.51-1.95.45-.11-.01-.21-.04-.32-.07,1.93-5.41,5.57-10.33,9.83-13.86,3.5-2.9,7.74-5.6,12.43-5.6.2,0,.39.01.6.02.4.01,1.05.02,1.37.34.01.01.23.28.19.28h.11c1.47,0,2.99.71,3.71,2.01.16.3.3.59.42.91,2.14,5.46,5.59,10.75,11.07,13.33.08.03.16.07.25.1-.61.9-1.48,1.6-2.37,2.19-.64.4-1.29.86-2.05,1.06-.84.23-1.71.01-2.55-.11-3.48-.51-6.88.28-9.41,2.81-.93.93-2.23,1.39-3.57,1.39,0,0,1.51.57,2.53.39-.62,1.44-.95,2.91-1.29,4.43-.31,1.44-1.14,4.27-3.04,4.27,0,0,1.9-.04,3.04-1.12,0,0-.14.81-.7,1.37,0,0,.76-.18,1.32-.92,0,.1.59.44.65.47.26.15.56.29.85.35.46.1.9.01,1.35-.05.47-.07.95-.13,1.42-.2.87-.14,1.73-.32,2.59-.5,1.72-.36,3.46-.81,5.02-1.63.56-.3,1.08-.62,1.57-1.02.15-.13.3-.26.44-.39,1-.96,1.78-2.12,2.43-3.35.2-.37.36-.79.62-1.13.31-.37.78-.65,1.2-.84-.82-.15-1.76.54-1.76.54-.14-.08-.04-.72-.02-.85.05-.27.15-.54.26-.8.39-.88,1.01-1.64,1.66-2.33.33-.35.69-.67,1.03-1.01.34-.35.59-.74.86-1.15.11-.19.22-.45.36-.59-2.28,2.3-5,2.18-5,2.18.83-.46,2.21-2.82,2.57-3.45.71.33,1.43.61,2.18.85.09.03.95.27.95.27,1.23-.86,2.87-1.82,4.4-1.83h.03c2.13,0,3.13,2.41,3.39,4.17.32,2.14-.08,4.32-.85,6.32-1.52,3.97-4.76,7.86-9.3,8.21-.14.01-.28.01-.43.01-.39,0-.79-.03-1.18-.07,0,0-.85,2.07-.92,2.22-2.02,4.31-5.47,7.69-9.23,10.52Zm-19.29-19.56c.3,1.25,1.05,2.13,1.68,1.98.04-.01.08-.04.11-.05.1.39.17.8.21,1.19.01.08.01.14.01.22-.23.28-.49.48-.81.57-1.29.33-2.77-1.31-3.29-3.68-.38-1.71-.15-3.3.49-4.19.59.66,1.13,1.36,1.63,2.09-.18.48-.21,1.15-.03,1.87Zm-2.8-.06c.59,2.64,2.37,4.44,3.99,4.03.31-.08.58-.24.83-.45,0,.43-.1.75-.27.96-.15.19-.37.28-.67.31-.46.04-.93-.09-1.39-.14-1.71-.22-3.32-.44-4.77-1.43-1.2-.82-2.22-1.96-2.8-3.3-.14-.33-.26-.67-.35-1.01-.45-1.81-.37-4.14,1.15-5.43,1.6-1.33,3.34.4,4.45,1.49.13.13.26.27.4.42-.72,1.04-.98,2.76-.58,4.56Zm21.8-2.19c-.15,2.49,1.12,4.61,2.83,4.73,1.72.11,3.23-1.83,3.38-4.32.08-1.42-.31-2.7-.95-3.58.68.03,1.37-.01,2.06-.21.19-.05.28.01.33.07.28.28.23.86.22,1.21-.03.62-.13,1.25-.24,1.85-.21,1.07-.48,2.13-.98,3.1-.63,1.23-1.72,1.98-2.93,2.56-1.42.68-2.93,1.16-4.46,1.47-.94.2-1.88.36-2.83.48-.25.03-.54.09-.82.13-.56.07-1.13.07-1.58-.28-.24-.2-.42-.51-.49-.9-.04-.23-.08-.48-.09-.74-.13-3.09,1.46-6.22,3.97-7.78.8-.5,1.7-.85,2.65-1.06.45-.1.89-.14,1.34-.16-.77.78-1.31,2.01-1.39,3.45Zm3.03-3.39c.17.02.36.04.54.07.1.01.2.02.3.03,1.09.46,1.85,2.13,1.73,4.08-.13,2.23-1.36,3.97-2.72,3.87-1.38-.09-2.39-1.97-2.24-4.2.12-2.07,1.17-3.69,2.41-3.85Z"/>
  <path d="m72.86,68.37c0,4.86-1.2,6.05-6.05,6.05,4.86,0,6.05,1.2,6.05,6.05,0-4.86,1.2-6.05,6.05-6.05-4.86,0-6.05-1.2-6.05-6.05Z"/>
  <path d="m67.92,75.49c0,2.76-.68,3.44-3.44,3.44,2.76,0,3.44.68,3.44,3.44,0-2.76.68-3.44,3.44-3.44-2.76,0-3.44-.68-3.44-3.44Z"/>
</svg>