<?xml version="1.0" encoding="UTF-8"?>
<svg id="_텍스트" data-name="텍스트" xmlns="http://www.w3.org/2000/svg" viewBox="0 0 1000 400">
  <defs>
    <style>
      .cls-1 {
        fill: #f7f6f3;
      }
    </style>
  </defs>
  <rect class="cls-1" width="1000" height="400"/>
  <g>
    <path d="m530.11,215.44c2.49.16,4.76-3.61,5.06-8.41.3-4.8-1.48-8.81-3.97-8.97-2.49-.16-4.76,3.61-5.06,8.41-.3,4.8,1.48,8.81,3.97,8.97Z"/>
    <path d="m490.84,281.48c-3.07-2.96-6.28-5.8-9.76-8.28-2.22-1.58-4.57-3.06-7.12-4.06-1.54-.61-3.21-1.06-4.89-.98-2.16.1-4.44,1.37-5.04,3.58-.19.69-.05,1.35.75,1.74.38.19.85.1,1.23-.09,1.01-.5,1.46-.89,2.5-1.31.82-.33,1.72-.41,2.59-.36,2.38.12,4.72,1.04,6.86,2.02,2.5,1.15,4.9,2.54,7.21,4.03,1.92,1.24,3.8,2.55,5.61,3.94.45.34.88.7,1.32,1.06-.11-.13-.2-.24-.26-.29-.34-.33-.68-.66-1.02-.99Z"/>
    <path d="m474.98,282.06c-.5-.2-1.02-.36-1.55-.44-.73-.12-1.43-.06-1.9.34-.93.79,1.27,1.85,1.78,2.09,1.05.49,2.2.77,3.36.8.28,0,.63.05.9-.04.44-.15.2-.55,0-.81-.67-.86-1.57-1.54-2.59-1.95Z"/>
    <path d="m473.32,256.41c-16.49-1.24-12.23-14.17-12.23-14.17-11.68,15.12,5.76,17.82,5.76,17.82-6.32-2.72,6.47-3.65,6.47-3.65Z"/>
    <path d="m489.9,163.23c1.25,1.28,3.4,1.17,5.05.99,3.27-.36,6.08-.51,9.29.37,3,.83,5.84,2.14,8.67,3.4,2.63,1.17,5.2,2.45,7.75,3.79,1.27.67,2.54,1.36,3.79,2.05.68.37,1.32.8,1.99,1.19.41.24,1.28.48,1.6.8-2.03-2.26-4-4.57-6.12-6.74-3.58-3.65-7.35-7.3-11.47-10.34-5.04-3.72-11.79-7.17-17.75-3.38-1.97,1.25-4.66,3.83-3.72,6.43.17.48.48.96.93,1.43Z"/>
    <path d="m452.5,152.48c-2.82-.68-5.84.16-8.27,1.61-3.35,2.01-5.99,5.01-8.46,7.98-3.14,3.78-6,7.93-8.33,12.26.57-.4,1.14-.8,1.71-1.2,3.42-2.38,6.92-4.65,10.57-6.65,3.33-1.83,6.62-3.29,10.36-4.07,1.4-.29,2.84-.42,4.15-1.02,1.25-.57,2.34-1.5,2.93-2.77,1.41-2.99-2.14-5.55-4.66-6.15Z"/>
    <path d="m593.35,189.64c-.54-2.75-4.01-2.46-6.09-1.79-3.13,1.04-5.72,3.42-7.93,5.84-.38.46-.79.92-1.17,1.38-4.17,5.01-7.64,10.97-9.26,17.36-.88,3.55-1.46,9.22,2.71,10.93.08.04.17.08.25.08.46.17.96.25,1.46.25,3.25,0,6.72-3.55,8.6-8.8.96-2.67,1.33-5.42,1.04-7.68-.33-2.75-1.54-4.63-3.46-5.3-.46-.17-.92-.25-1.42-.25s-1,.08-1.5.25c.67-.96,1.21-2.13,1.88-3,2.75-3.59,5.63-7.51,9.81-9.47,1.21-.58,2.71-.88,3.59.38.58.79.67,1.88.63,2.84-.04.58-.12,1.17-.25,1.75-.08.38-.13.88-.25,1.29.5-.92.92-1.88,1.17-2.92.25-.96.42-2,.25-2.96,0-.04,0-.13-.04-.17Z"/>
    <path d="m666.71,119.91c-19.35-26.83-47.22-47.19-77.51-60.06-7.19-3.06-14.51-5.67-21.85-7.81-62.67-18.28-134.6-9.42-187.28,30.54-49.84,37.8-89.82,110.73-60.81,172.81,28.43,60.87,105.25,87.15,168.29,78.52,6.04-.83,12.03-1.98,17.93-3.47,17.9-4.54,35.39-10.84,51.66-19.64,17.2-9.3,30.8-22.18,46.22-33.92,7.06-5.37,15.63-10.66,24.66-11.6,5.1-.53,11.24,1.09,13.33,6.28,4.48,11.15-11.36,23.81-18.43,29.94-7.89,6.84-16.61,12.64-25.41,18.21-.11.07-.23.17-.36.27.86-.39,1.71-.77,2.47-1.16,2.14-1.11,4.29-2.21,6.44-3.31,9.46-4.83,18.71-9.57,27.34-15.83,58.27-42.22,76.59-119.83,33.34-179.79Zm-260.01,65.39c.71.29,1.46.5,2.3.46,0,0-1.04.67-2.84,1.21.17-.54.38-1.13.54-1.67Zm-2.92,11.93c.13.21.25.38.38.54,1.25,2,2.5,4.26,3.26,6.55.46,1.38.63,3.05-1.38,2.09-1.04-.54-1.96-1.04-3.09-1.42-.08-.04-.13-.04-.17-.04.21-2.59.54-5.13,1-7.72Zm195.24,12.02c-5.8,15.15-18.15,29.96-35.47,31.3-.54.04-1.09.04-1.63.04-1.5,0-3-.13-4.51-.25.03,0-3.23,7.88-3.51,8.47-7.71,16.42-20.86,29.31-35.21,40.1-7.76,5.8-17.82,12.02-27.79,12.02-3.5,0-7.05-.75-10.47-2.63-13.94-7.55-30.13-10.27-43.52-18.99-6.97-4.55-12.94-10.47-17.94-17.02-9.22-12.23-14.73-27.08-16.23-42.23-.46-4.76-.42-9.56-.04-14.35,1.25.58,2.46,1.29,3.42,2.21,1.46,1.46,2.21,3.42,3.21,5.22,2.8,4.88,6.63,9.35,11.22,12.68,5.13,3.8,11.02,5.68,17.28,6.63.75.13,1.5.21,2.29.29,5.13.63,11.06,2.09,15.36-1.79.13-.12.67-.54.67-.83.63,1.54,2,2.63,3.46,3.34,1.08.5,2.55.92,3.8.71-.63-.29-1.21-.63-1.75-1-1.09-.75-2.09-1.71-2.75-2.84-.21-.33-.38-.71-.54-1.08,0,0,6.84,0,7.72-1.75-3.42.21-7.14.13-8.51-3.46-1.25-3.21-2.46-6.43-3.84-9.56-1.38-3.13-3.05-6.13-4.34-9.31-.33-.75-.58-1.5-.83-2.25-.71-2.42,6.05-2.5,7.05-2.55-2.71-.42-5.42-1.29-7.8-2.67-2.71-1.54-4.3-4.17-6.18-6.51-2.29-2.88-4.88-5.55-7.59-8.01-2.71-2.42-5.84-4.55-9.51-4.92-2.63-.25-5.59.25-7.89,1.59-2.42,1.38-4.63,1.96-7.43,1.71-.42-.04-.79-.17-1.21-.25,7.34-20.61,21.24-39.39,37.47-52.87,13.35-11.06,29.5-21.36,47.4-21.36.75,0,1.5.04,2.29.08,1.54.04,4.01.08,5.22,1.29.04.04.88,1.09.71,1.09h.42c5.59,0,11.39,2.71,14.14,7.68.63,1.13,1.13,2.25,1.59,3.46,8.18,20.82,21.32,40.98,42.23,50.82.29.12.63.25.96.38-2.34,3.42-5.63,6.09-9.05,8.35-2.42,1.54-4.92,3.3-7.8,4.05-3.21.88-6.51.04-9.72-.42-13.27-1.96-26.25,1.09-35.88,10.72-3.55,3.55-8.51,5.3-13.6,5.3,0,0,5.76,2.17,9.64,1.5-2.38,5.51-3.63,11.1-4.92,16.9-1.17,5.51-4.34,16.27-11.6,16.27,0,0,7.26-.17,11.6-4.26,0,0-.54,3.09-2.67,5.22,0,0,2.88-.67,5.05-3.51,0,.38,2.25,1.67,2.46,1.79,1,.58,2.13,1.09,3.25,1.34,1.75.38,3.42.04,5.13-.21,1.79-.25,3.63-.5,5.42-.75,3.34-.54,6.59-1.21,9.89-1.92,6.55-1.38,13.19-3.09,19.15-6.22,2.13-1.13,4.13-2.38,5.97-3.88.58-.5,1.13-1,1.67-1.5,3.8-3.67,6.8-8.1,9.26-12.77.75-1.42,1.38-3,2.38-4.3,1.17-1.42,2.96-2.46,4.59-3.21-3.13-.58-6.72,2.04-6.72,2.04-.54-.29-.17-2.75-.08-3.26.21-1.04.58-2.04,1-3.05,1.5-3.34,3.84-6.26,6.34-8.89,1.25-1.34,2.63-2.55,3.92-3.84,1.29-1.34,2.25-2.84,3.3-4.38.42-.71.83-1.71,1.38-2.25-8.68,8.76-19.07,8.3-19.07,8.3,3.17-1.75,8.43-10.77,9.81-13.14,2.71,1.25,5.47,2.34,8.3,3.25.33.12,3.63,1.04,3.63,1.04,4.67-3.3,10.93-6.93,16.77-6.97h.13c8.14,0,11.93,9.18,12.94,15.9,1.21,8.18-.29,16.48-3.26,24.12Zm-153.89,5.05c1.13,4.76,4.01,8.14,6.43,7.55.17-.04.29-.17.42-.21.38,1.5.67,3.05.79,4.55.04.29.04.54.04.83-.88,1.08-1.88,1.84-3.09,2.17-4.92,1.25-10.56-5.01-12.56-14.02-1.46-6.51-.58-12.6,1.88-15.98,2.25,2.5,4.3,5.17,6.22,7.97-.67,1.84-.79,4.38-.13,7.14Zm-10.68-.21c2.25,10.06,9.05,16.94,15.23,15.36,1.17-.29,2.21-.92,3.17-1.71,0,1.63-.38,2.88-1.04,3.67-.58.71-1.42,1.08-2.55,1.17-1.75.17-3.55-.33-5.3-.54-6.51-.83-12.64-1.67-18.19-5.47-4.59-3.13-8.47-7.47-10.68-12.6-.54-1.25-1-2.55-1.34-3.84-1.71-6.89-1.42-15.77,4.38-20.7,6.09-5.09,12.73,1.54,16.98,5.68.5.5,1,1.04,1.54,1.59-2.75,3.96-3.76,10.52-2.21,17.4Zm83.12-8.35c-.58,9.51,4.26,17.57,10.81,18.03,6.55.42,12.31-6.97,12.89-16.48.29-5.42-1.17-10.31-3.63-13.64,2.59.13,5.22-.04,7.84-.79.71-.21,1.09.04,1.25.25,1.08,1.09.88,3.3.83,4.63-.13,2.38-.5,4.76-.92,7.05-.79,4.09-1.84,8.14-3.76,11.81-2.42,4.67-6.55,7.55-11.18,9.76-5.42,2.59-11.18,4.42-17.02,5.59-3.59.75-7.18,1.38-10.81,1.84-.96.13-2.04.33-3.13.5-2.13.25-4.3.25-6.01-1.08-.92-.75-1.59-1.96-1.88-3.42-.17-.88-.29-1.84-.33-2.84-.5-11.77,5.55-23.7,15.15-29.67,3.05-1.92,6.47-3.25,10.1-4.05,1.71-.38,3.38-.54,5.09-.63-2.92,2.96-5.01,7.68-5.3,13.14Zm11.56-12.93c.67.08,1.38.17,2.04.25.38.04.75.08,1.13.13,4.17,1.75,7.05,8.14,6.59,15.56-.5,8.51-5.17,15.15-10.39,14.77-5.26-.33-9.1-7.51-8.55-16.02.46-7.89,4.47-14.06,9.18-14.69Z"/>
    <path d="m587.17,303.65c0,18.51-4.56,23.07-23.07,23.07,18.52,0,23.07,4.56,23.07,23.07,0-18.52,4.56-23.07,23.07-23.07-18.52,0-23.07-4.56-23.07-23.07Z"/>
    <path d="m568.34,330.81c0,10.53-2.59,13.12-13.12,13.12,10.53,0,13.12,2.59,13.12,13.12,0-10.53,2.59-13.12,13.12-13.12-10.53,0-13.12-2.59-13.12-13.12Z"/>
  </g>
</svg>