<?xml version="1.0" encoding="UTF-8"?>
<svg id="_π_ÃæÓ_1" data-name="∑π¿ÃæÓ_1" xmlns="http://www.w3.org/2000/svg" viewBox="0 0 461 504">
  <defs>
    <style>
      .cls-1 {
        stroke: #000;
        stroke-linecap: round;
        stroke-linejoin: round;
      }

      .cls-1, .cls-2 {
        fill: #fff;
      }
    </style>
  </defs>
  <rect class="cls-2" width="461" height="504"/>
  <g>
    <g>
      <path class="cls-1" d="m430.93,160.23c-22.44-31.11-54.88-56.3-93.81-72.84-8.62-3.67-17.49-6.83-26.34-9.42-24.71-7.21-50.37-10.86-76.27-10.86-55.1,0-107.83,16.97-148.46,47.79-31.51,23.9-57.95,57.99-72.52,93.53-17.32,42.24-17.55,83.67-.67,119.81,28.12,60.19,97.42,99.07,176.58,99.07,9.82,0,19.58-.65,29.01-1.94,7.45-1.02,14.82-2.45,21.9-4.24,17.28-4.38,33.36-9.98,48.02-16.68.15,1.17.4,2.3.81,3.37-6.33,1.67-11.03,7.38-11.03,14.24,0,8.17,6.62,14.78,14.78,14.78h.05v.05c0,8.17,6.62,14.78,14.78,14.78,6.56,0,12.05-4.29,13.99-10.2,2.16,1.24,4.63,2,7.3,2,8.17,0,14.78-6.62,14.78-14.78,0-6.63.63-9.36.96-10.33.98-.33,3.7-.96,10.33-.96,8.17,0,14.78-6.62,14.78-14.78,0-1.98-.4-3.86-1.11-5.59,7.08-3.81,14.2-7.97,21.13-12.99,35.46-25.69,59.49-62.32,67.68-103.14,8.47-42.21-1.01-85.06-26.68-120.67Zm-87.25,214.84c-.2-2.04-.8-3.94-1.75-5.65.02-.02.04-.03.06-.05,4.66-3.77,9.47-7.67,14.29-11.34,7.26-5.53,13.32-8.77,18.43-9.85-2.24,3.18-6.72,7.66-13.39,13.39l-1.58,1.36c-5.01,4.34-10.5,8.35-16.06,12.13Z"/>
      <g>
        <path d="m264.52,276.85c2.82.18,5.38-4.08,5.71-9.5.34-5.42-1.67-9.96-4.49-10.14-2.82-.18-5.38,4.08-5.71,9.5-.34,5.42,1.67,9.96,4.49,10.14Z"/>
        <path d="m220.14,351.47c-3.47-3.34-7.1-6.56-11.02-9.36-2.51-1.79-5.17-3.46-8.05-4.58-1.75-.68-3.63-1.19-5.52-1.11-2.44.11-5.02,1.54-5.69,4.04-.21.78-.05,1.52.85,1.96.43.21.96.12,1.39-.1,1.14-.56,1.65-1.01,2.82-1.49.92-.38,1.94-.46,2.93-.41,2.69.14,5.33,1.17,7.75,2.28,2.83,1.3,5.53,2.87,8.15,4.56,2.17,1.4,4.29,2.88,6.34,4.45.5.39,1,.79,1.49,1.19-.12-.14-.23-.27-.29-.33-.38-.38-.77-.75-1.15-1.12Z"/>
        <path d="m202.22,352.14c-.56-.23-1.15-.4-1.76-.5-.83-.13-1.62-.07-2.15.39-1.06.9,1.43,2.09,2.02,2.36,1.19.55,2.49.87,3.8.91.32,0,.71.06,1.02-.05.5-.17.23-.62,0-.91-.76-.97-1.78-1.74-2.93-2.21Z"/>
        <path d="m200.35,323.15c-18.63-1.4-13.82-16.01-13.82-16.01-13.2,17.09,6.51,20.14,6.51,20.14-7.14-3.08,7.31-4.13,7.31-4.13Z"/>
        <path d="m219.09,217.84c1.42,1.45,3.85,1.32,5.7,1.12,3.7-.4,6.87-.58,10.5.42,3.39.94,6.6,2.42,9.8,3.84,2.97,1.32,5.88,2.77,8.76,4.29,1.44.76,2.87,1.53,4.29,2.32.76.42,1.49.9,2.25,1.34.46.27,1.45.54,1.81.9-2.29-2.55-4.52-5.17-6.92-7.62-4.04-4.12-8.31-8.25-12.97-11.68-5.7-4.2-13.33-8.1-20.06-3.82-2.23,1.42-5.27,4.33-4.21,7.27.2.55.54,1.09,1.05,1.61Z"/>
        <path d="m176.81,205.69c-3.18-.77-6.6.18-9.35,1.83-3.78,2.27-6.77,5.66-9.56,9.02-3.55,4.28-6.78,8.96-9.42,13.86.64-.46,1.28-.91,1.93-1.36,3.86-2.68,7.82-5.25,11.95-7.52,3.77-2.07,7.48-3.72,11.71-4.6,1.59-.33,3.21-.47,4.69-1.15,1.41-.65,2.64-1.7,3.32-3.13,1.59-3.38-2.42-6.27-5.26-6.96Z"/>
        <path d="m336,247.68c-.61-3.11-4.53-2.78-6.89-2.03-3.54,1.18-6.46,3.87-8.96,6.6-.42.52-.9,1.04-1.32,1.56-4.72,5.66-8.63,12.4-10.47,19.62-.99,4.01-1.65,10.42,3.07,12.36.09.05.19.09.28.09.52.19,1.09.28,1.65.28,3.68,0,7.59-4.01,9.71-9.95,1.08-3.02,1.51-6.13,1.18-8.68-.38-3.11-1.74-5.23-3.91-5.99-.52-.19-1.04-.28-1.6-.28s-1.13.09-1.7.28c.76-1.08,1.37-2.41,2.12-3.4,3.11-4.06,6.37-8.49,11.08-10.7,1.37-.66,3.07-.99,4.06.42.66.9.75,2.12.71,3.21-.05.66-.14,1.32-.28,1.98-.09.42-.14.99-.28,1.46.57-1.04,1.04-2.12,1.32-3.3.28-1.08.47-2.26.28-3.35,0-.05,0-.14-.05-.19Z"/>
        <path d="m310.19,347.69c.14.64.88,1.82,2.22,1.52.46-.1.96-.33,1.52-.82,1.18-.99,1.18-3.48,1.09-6.68-1.99,1.16-5.48,3.01-4.84,5.97Z"/>
        <path d="m340.97,306.69c-5.82,2.68-3.27,20.03,2.65,17.43,6.74-2.95,2.66-19.95-2.65-17.43Z"/>
        <path d="m131.08,137.82c-3.27,1.63-4.84,7.5-4.74,14.28,1.96-.16,3.56-.65,4.87-1.29,7.94-3.94,3.71-14.9-.13-12.99Z"/>
        <path d="m168.79,150.74c10.75-3.56,6.93-30.21-1.57-27.1-9.31,3.28-7.89,30.23,1.57,27.1Z"/>
        <path d="m418.91,168.88c-21.87-30.32-53.37-53.34-87.6-67.88-8.13-3.45-16.4-6.41-24.7-8.83-70.83-20.66-152.12-10.64-211.66,34.51C38.63,169.4-6.55,251.81,26.23,321.98c32.14,68.8,118.95,98.49,190.19,88.74,6.82-.93,13.59-2.23,20.27-3.93,20.23-5.13,40-12.25,58.38-22.19,19.44-10.51,34.81-25.07,52.24-38.33,7.97-6.07,17.66-12.05,27.87-13.1,5.77-.6,12.71,1.23,15.06,7.1,5.06,12.6-12.84,26.91-20.83,33.84-8.91,7.73-18.77,14.28-28.72,20.58-.12.08-.26.19-.41.31.97-.44,1.93-.87,2.79-1.31,2.42-1.25,4.85-2.5,7.28-3.74,10.69-5.46,21.14-10.82,30.89-17.89,65.86-47.72,86.55-135.42,37.68-203.19Zm-294.52-35.9c5.15-2.56,11.28-2.54,15.1,5.15,3.58,7.2.7,13.53-6.09,16.9-3.76,1.87-6.5,1.7-6.5,1.7.68,5.68,5.65,10.15,13.09,6.45,1.12-.56,2.07-1.37,2.86-2.33,5.74-6.88,4.45-17.03,6.44-25.25,1.89-7.81,6.35-16.01,14.44-18.69,15.09-5,20.9,9.92,21.71,20.24.96,11.33-3.42,21.92-13.22,25.17-5.38,1.78-14.76,2.78-19.92-5.66-.89,7.35-4.03,15.87-12.77,20.21-8.18,4.07-23.05,4.72-25.32-18.53-.28-3.23-.89-19.86,10.16-25.34Zm.05,111.69c.19-.61.42-1.27.61-1.89.8.33,1.65.57,2.59.52,0,0-1.18.75-3.21,1.37Zm-.14,21.98c-1.18-.61-2.22-1.18-3.49-1.6-.09-.05-.14-.05-.19-.05.24-2.92.61-5.8,1.13-8.72.14.24.28.42.42.61,1.42,2.26,2.83,4.81,3.68,7.4.52,1.56.71,3.44-1.56,2.36Zm-15.47-66.53c-9.38,6.51-14.14,2.37-16.49-2.45-2.9-5.77-.05-10.64,1.38-11.63,2.33-1.62.37,9.97,8.99,3.98,3.75-2.61,4.85-5.03,3.69-7.34-3.61-7.28-21.25,5.75-27.43-6.53-2.08-4.12-5.39-17.05,10.82-28.3,17.63-12.24,19.71,14.78,14.87,17.58-4.84,2.8-9.08-2.03-6.77-3.19,2.26-1.23,2.26-10.35-3.74-6.19-2.55,1.77-5.78,6.57-5.73,10.32.6,13.04,21.12-4.33,27.56,12,3.3,8.6-.16,16.9-7.14,21.75Zm214.91,136.18c-.65,16-5.48,21.97-12.1,23.41-4.12.9-8.22-1.19-8.88-5.36-1.22-8.11,5.49-12.74,12.35-15.81-.04-.17.07-2.75.42-6.71-1.96,4.13-4.76,7.42-8.59,8.25-12.65,2.75-6.25-23.13-5.78-25.17.25-1.09,1.32-1.74,2.66-2.03,2.78-.61,6.56.27,6.17,2.12-.42,1.97-1,5.2-1.36,8.26-.34,3.48.04,6.31,2.19,5.84,3.42-.74,4.96-4,5.7-7.01.39-2.94.85-6.14,1.45-9.24.19-1.08,1.32-1.75,2.66-2.04,2.78-.61,6.56.27,6.17,2.12-2.51,10.51-3.05,23.39-3.05,23.39Zm-21.42-31.08c-.61.05-1.23.05-1.84.05-1.7,0-3.4-.14-5.09-.28.04,0-3.66,8.91-3.97,9.57-8.72,18.55-23.58,33.13-39.8,45.32-8.77,6.55-20.14,13.58-31.41,13.58-3.96,0-7.97-.85-11.84-2.97-15.75-8.54-34.05-11.6-49.19-21.46-7.88-5.14-14.62-11.84-20.28-19.24-10.42-13.82-16.65-30.61-18.34-47.72-.52-5.38-.47-10.8-.05-16.22,1.41.66,2.78,1.46,3.87,2.5,1.65,1.65,2.5,3.87,3.63,5.9,3.16,5.52,7.5,10.56,12.69,14.34,5.8,4.29,12.45,6.41,19.52,7.5.85.14,1.7.24,2.59.33,5.8.71,12.5,2.36,17.35-2.03.14-.14.76-.61.76-.94.71,1.75,2.26,2.97,3.91,3.77,1.23.57,2.88,1.04,4.29.8-.71-.33-1.37-.71-1.98-1.13-1.23-.85-2.36-1.93-3.11-3.21-.24-.38-.42-.8-.61-1.23,0,0,7.73,0,8.72-1.98-3.87.24-8.06.14-9.62-3.91-1.41-3.63-2.78-7.26-4.34-10.8-1.56-3.54-3.44-6.93-4.9-10.52-.38-.85-.66-1.7-.94-2.55-.8-2.74,6.84-2.83,7.97-2.88-3.07-.47-6.13-1.46-8.82-3.02-3.07-1.74-4.86-4.72-6.98-7.36-2.59-3.25-5.52-6.27-8.58-9.05-3.07-2.74-6.6-5.14-10.75-5.56-2.97-.28-6.32.28-8.91,1.79-2.73,1.56-5.23,2.22-8.39,1.93-.47-.05-.9-.19-1.37-.28,8.3-23.3,24-44.52,42.35-59.75,15.09-12.5,33.34-24.14,53.57-24.14.85,0,1.7.05,2.59.09,1.74.05,4.53.09,5.9,1.46.05.05.99,1.23.8,1.23h.47c6.32,0,12.87,3.06,15.99,8.68.71,1.27,1.27,2.55,1.79,3.91,9.24,23.53,24.1,46.31,47.72,57.44.33.14.71.28,1.08.42-2.64,3.87-6.37,6.89-10.23,9.43-2.74,1.74-5.56,3.73-8.82,4.57-3.63.99-7.36.05-10.99-.47-15-2.22-29.66,1.23-40.56,12.12-4.01,4.01-9.62,5.99-15.37,5.99,0,0,6.51,2.45,10.89,1.7-2.69,6.23-4.1,12.54-5.57,19.1-1.32,6.22-4.9,18.39-13.11,18.39,0,0,8.21-.19,13.11-4.81,0,0-.61,3.49-3.02,5.9,0,0,3.26-.75,5.71-3.96,0,.42,2.55,1.89,2.78,2.03,1.13.66,2.41,1.23,3.68,1.51,1.98.42,3.87.05,5.8-.24,2.03-.28,4.1-.57,6.13-.85,3.77-.61,7.45-1.37,11.18-2.17,7.4-1.56,14.9-3.49,21.65-7.03,2.41-1.27,4.67-2.69,6.74-4.39.66-.57,1.27-1.13,1.89-1.7,4.29-4.15,7.69-9.15,10.47-14.43.85-1.6,1.56-3.39,2.69-4.86,1.32-1.6,3.35-2.78,5.19-3.63-3.54-.66-7.59,2.31-7.59,2.31-.61-.33-.19-3.11-.09-3.68.24-1.18.66-2.31,1.13-3.44,1.7-3.77,4.34-7.07,7.17-10.04,1.41-1.51,2.97-2.88,4.43-4.34,1.46-1.51,2.55-3.21,3.73-4.95.47-.8.94-1.93,1.56-2.55-9.81,9.9-21.55,9.38-21.55,9.38,3.58-1.98,9.53-12.17,11.08-14.85,3.07,1.41,6.18,2.64,9.38,3.68.38.14,4.1,1.18,4.1,1.18,5.28-3.72,12.36-7.83,18.96-7.88h.14c9.2,0,13.49,10.38,14.62,17.97,1.37,9.24-.33,18.63-3.68,27.26-6.55,17.12-20.51,33.86-40.08,35.37Zm-133.83-29.66c1.27,5.38,4.53,9.2,7.26,8.54.19-.05.33-.19.47-.24.42,1.7.75,3.44.9,5.14.05.33.05.61.05.94-.99,1.23-2.12,2.07-3.49,2.45-5.57,1.41-11.93-5.66-14.19-15.84-1.65-7.36-.66-14.24,2.12-18.06,2.55,2.83,4.86,5.85,7.03,9.01-.75,2.07-.9,4.95-.14,8.06Zm-12.07-.24c2.55,11.37,10.23,19.15,17.21,17.35,1.32-.33,2.5-1.04,3.58-1.93,0,1.84-.42,3.25-1.18,4.15-.66.8-1.6,1.23-2.88,1.32-1.98.19-4.01-.38-5.99-.61-7.36-.94-14.29-1.89-20.56-6.18-5.19-3.54-9.57-8.44-12.07-14.24-.61-1.41-1.13-2.88-1.51-4.34-1.93-7.78-1.6-17.83,4.95-23.39,6.88-5.75,14.38,1.75,19.19,6.41.57.57,1.13,1.18,1.74,1.79-3.11,4.48-4.24,11.88-2.5,19.67Zm93.94-9.43c-.66,10.75,4.81,19.85,12.21,20.37,7.4.47,13.91-7.88,14.57-18.63.33-6.13-1.32-11.65-4.1-15.42,2.92.14,5.9-.05,8.87-.9.8-.24,1.23.05,1.42.28,1.23,1.23.99,3.73.94,5.23-.14,2.69-.57,5.38-1.04,7.97-.9,4.62-2.07,9.2-4.24,13.35-2.74,5.28-7.4,8.54-12.64,11.04-6.13,2.92-12.64,5-19.24,6.32-4.06.85-8.11,1.56-12.21,2.07-1.08.14-2.31.38-3.54.57-2.41.28-4.86.28-6.79-1.23-1.04-.85-1.79-2.22-2.12-3.87-.19-.99-.33-2.08-.38-3.21-.57-13.3,6.27-26.79,17.12-33.53,3.44-2.17,7.31-3.68,11.41-4.57,1.93-.42,3.82-.61,5.75-.71-3.3,3.35-5.66,8.68-5.99,14.86Zm13.06-14.62c.75.09,1.56.19,2.31.28.42.05.85.09,1.27.14,4.72,1.98,7.97,9.2,7.45,17.59-.57,9.62-5.85,17.12-11.74,16.69-5.94-.38-10.28-8.49-9.67-18.11.52-8.91,5.05-15.89,10.38-16.6Zm83.13,80.12c-4.67,2.05-14.42,3.6-16.44-11.65-.8-6.26,1.19-14.13,8.2-17.2,9.46-4.14,14.11,5.15,15.27,11.77,1.31,7.27-.89,14.38-7.03,17.08Zm40.11-25.55c-3.31,2.7-6.86,3.14-10.16-.06.87,5.11.08,10.42-5.03,13.74-10.07,6.52-15.96-16.77-17.54-22.37-.27-1.08.39-2.15,1.44-3.01,2.21-1.8,5.97-2.73,6.46-.9,1.31,4.98,4.81,17.36,8.17,14.62,2.99-2.44,2.07-7.89,1.21-11.09-1.83-4.4-2.73-8.8-2.95-9.54-.27-1.08.39-2.15,1.45-3.02,2.21-1.8,5.97-2.72,6.46-.9.52,1.95,1.42,5.12,2.47,8.01,1.36,3.17,2.93,5.57,4.68,4.15,3.04-2.48,2.51-6.87,1.57-10.01,1.51-1.16,2.6.94,2.6.94,2.87,5.77,5.23,14.49-.84,19.44Zm26.26-35.4c-4.05,6.9-10.86,2.5-17.91-3.7-1.99-1.8-4.07-2.66-4.98-.79-1.63,3.5.82,7.06,2.86,9.33,7.55,6.68,11.81,7.48,11.83,7.42,0,0,3.03-.53.98,4.07-3.51,7.86-15.42.33-25.67-12.23-.7-.9-.57-2.21-.02-3.45,1.14-2.55,4.03-4.96,5.29-3.56.33.41.73.84,1.09,1.2-.96-3.09-1.13-6.35.36-9.26,3.21-6.17,8.34-4.86,12.47-1,1.38,1.26,5.69,5.46,7.11,2.26,1.6-3.58-1.82-8.16-4.08-10.53.88-1.68,2.75-.33,2.75-.33,5.66,4.21,12.77,12.32,7.92,20.56Z"/>
        <path d="m329.02,376.53c0,20.92-5.15,26.08-26.08,26.08,20.93,0,26.08,5.15,26.08,26.08,0-20.93,5.15-26.08,26.08-26.08-20.93,0-26.08-5.15-26.08-26.08Z"/>
        <path d="m307.73,407.23c0,11.9-2.93,14.83-14.83,14.83,11.9,0,14.83,2.93,14.83,14.83,0-11.9,2.93-14.83,14.83-14.83-11.9,0-14.83-2.93-14.83-14.83Z"/>
      </g>
    </g>
    <g>
      <path d="m422.41,58.79c-24.3,0-33.84,9.38-33.84,33.26,0-23.88-9.55-33.26-33.84-33.26,24.3,0,33.84-9.38,33.84-33.26,0,23.88,9.55,33.26,33.84,33.26Z"/>
      <path d="m439.34,92.06c-12.15,0-16.92,4.69-16.92,16.63,0-11.94-4.77-16.63-16.92-16.63,12.15,0,16.92-4.69,16.92-16.63,0,11.94,4.77,16.63,16.92,16.63Z"/>
    </g>
    <g>
      <path d="m68.08,428.58c-24.3,0-33.84,9.38-33.84,33.26,0-23.88-9.55-33.26-33.84-33.26,24.3,0,33.84-9.38,33.84-33.26,0,23.88,9.55,33.26,33.84,33.26Z"/>
      <path d="m85,461.84c-12.15,0-16.92,4.69-16.92,16.63,0-11.94-4.77-16.63-16.92-16.63,12.15,0,16.92-4.69,16.92-16.63,0,11.94,4.77,16.63,16.92,16.63Z"/>
    </g>
  </g>
</svg>