<?xml version="1.0" encoding="UTF-8"?>
<svg id="Layer_2" data-name="Layer 2" xmlns="http://www.w3.org/2000/svg" viewBox="0 0 352.67 354.07">
  <defs>
    <style>
      .cls-1 {
        fill: #ec008c;
      }

      .cls-2 {
        fill: #fff;
      }
    </style>
  </defs>
  <rect class="cls-2" y=".47" width="352.67" height="354.07"/>
  <g>
    <path class="cls-1" d="m198.79,188.55c1.86.12,3.55-2.69,3.77-6.27.22-3.58-1.1-6.57-2.96-6.69-1.86-.12-3.55,2.69-3.77,6.27-.22,3.58,1.1,6.57,2.96,6.69Z"/>
    <path class="cls-1" d="m169.5,237.81c-2.29-2.2-4.69-4.33-7.28-6.18-1.65-1.18-3.41-2.28-5.31-3.02-1.15-.45-2.4-.79-3.65-.73-1.61.07-3.31,1.02-3.76,2.67-.14.52-.03,1,.56,1.3.29.14.63.08.92-.06.75-.37,1.09-.67,1.86-.98.61-.25,1.28-.3,1.93-.27,1.78.09,3.52.77,5.12,1.51,1.87.86,3.65,1.9,5.38,3.01,1.43.92,2.83,1.9,4.18,2.94.33.26.66.52.98.79-.08-.09-.15-.18-.19-.22-.25-.25-.51-.49-.76-.74Z"/>
    <path class="cls-1" d="m157.67,238.24c-.37-.15-.76-.27-1.16-.33-.55-.09-1.07-.04-1.42.26-.7.59.95,1.38,1.33,1.56.78.37,1.64.57,2.51.6.21,0,.47.04.67-.03.33-.11.15-.41,0-.6-.5-.64-1.17-1.15-1.93-1.46Z"/>
    <path class="cls-1" d="m156.44,219.11c-12.3-.92-9.12-10.57-9.12-10.57-8.71,11.28,4.3,13.29,4.3,13.29-4.71-2.03,4.83-2.72,4.83-2.72Z"/>
    <path class="cls-1" d="m168.8,149.61c.93.96,2.54.87,3.76.74,2.44-.26,4.53-.38,6.93.28,2.24.62,4.35,1.59,6.47,2.54,1.96.87,3.88,1.83,5.78,2.83.95.5,1.89,1.01,2.83,1.53.5.28.98.6,1.48.89.3.18.96.36,1.19.59-1.51-1.68-2.98-3.41-4.57-5.03-2.67-2.72-5.48-5.45-8.56-7.71-3.76-2.77-8.79-5.35-13.24-2.52-1.47.94-3.48,2.86-2.78,4.8.13.36.35.72.69,1.06Z"/>
    <path class="cls-1" d="m140.9,141.59c-2.1-.51-4.36.12-6.17,1.2-2.5,1.5-4.47,3.74-6.31,5.95-2.34,2.82-4.47,5.91-6.21,9.15.42-.3.85-.6,1.27-.9,2.55-1.77,5.16-3.47,7.88-4.96,2.49-1.37,4.94-2.45,7.73-3.03,1.05-.22,2.12-.31,3.09-.76.93-.43,1.74-1.12,2.19-2.06,1.05-2.23-1.6-4.14-3.47-4.59Z"/>
    <path class="cls-1" d="m245.96,169.31c-.4-2.05-2.99-1.84-4.54-1.34-2.33.78-4.26,2.55-5.91,4.36-.28.34-.59.68-.87,1.03-3.11,3.73-5.7,8.19-6.91,12.95-.65,2.65-1.09,6.88,2.02,8.15.06.03.12.06.19.06.34.12.72.19,1.09.19,2.43,0,5.01-2.65,6.41-6.57.72-1.99,1-4.05.78-5.73-.25-2.05-1.15-3.45-2.58-3.95-.34-.12-.68-.19-1.06-.19s-.75.06-1.12.19c.5-.72.9-1.59,1.4-2.24,2.05-2.68,4.2-5.6,7.31-7.07.9-.44,2.02-.65,2.68.28.44.59.5,1.4.47,2.12-.03.44-.09.87-.19,1.31-.06.28-.09.65-.19.96.37-.68.68-1.4.87-2.18.19-.72.31-1.49.19-2.21,0-.03,0-.09-.03-.12Z"/>
    <path class="cls-1" d="m300.68,117.3c-14.43-20.01-35.22-35.2-57.81-44.8-5.37-2.28-10.82-4.23-16.3-5.83-46.74-13.64-100.4-7.02-139.69,22.78-37.17,28.19-66.99,82.59-45.36,128.9,21.21,45.4,78.51,65,125.52,58.57,4.5-.62,8.97-1.47,13.38-2.59,13.35-3.39,26.4-8.09,38.53-14.65,12.83-6.94,22.98-16.55,34.48-25.3,5.26-4,11.66-7.95,18.39-8.65,3.81-.39,8.39.81,9.94,4.69,3.34,8.32-8.47,17.76-13.75,22.33-5.88,5.1-12.39,9.43-18.96,13.58-.08.05-.17.12-.27.2.64-.29,1.28-.57,1.84-.87,1.6-.83,3.2-1.65,4.8-2.47,7.06-3.61,13.95-7.14,20.39-11.81,43.46-31.49,57.12-89.38,24.87-134.1Zm-193.94,48.77c.53.22,1.09.37,1.71.34,0,0-.78.5-2.12.9.12-.4.28-.84.4-1.24Zm-2.18,8.9c.09.16.19.28.28.4.93,1.49,1.87,3.17,2.43,4.89.34,1.03.47,2.27-1.03,1.56-.78-.4-1.46-.78-2.3-1.06-.06-.03-.09-.03-.12-.03.16-1.93.4-3.83.75-5.76Zm145.63,8.96c-4.33,11.3-13.54,22.35-26.45,23.34-.4.03-.81.03-1.21.03-1.12,0-2.24-.09-3.36-.19.03,0-2.41,5.88-2.62,6.32-5.75,12.25-15.56,21.86-26.27,29.91-5.79,4.33-13.29,8.96-20.73,8.96-2.61,0-5.26-.56-7.81-1.96-10.4-5.63-22.47-7.66-32.46-14.16-5.2-3.39-9.65-7.81-13.38-12.7-6.88-9.12-10.99-20.2-12.11-31.5-.34-3.55-.31-7.13-.03-10.71.93.44,1.84.96,2.55,1.65,1.09,1.09,1.65,2.55,2.4,3.89,2.09,3.64,4.95,6.97,8.37,9.46,3.83,2.83,8.22,4.23,12.89,4.95.56.09,1.12.16,1.71.22,3.83.47,8.25,1.56,11.45-1.34.09-.09.5-.4.5-.62.47,1.15,1.49,1.96,2.58,2.49.81.37,1.9.68,2.83.53-.47-.22-.9-.47-1.31-.75-.81-.56-1.56-1.28-2.05-2.12-.16-.25-.28-.53-.4-.81,0,0,5.1,0,5.76-1.31-2.55.16-5.32.09-6.35-2.58-.93-2.4-1.84-4.79-2.86-7.13-1.03-2.33-2.27-4.58-3.24-6.94-.25-.56-.44-1.12-.62-1.68-.53-1.81,4.51-1.87,5.26-1.9-2.02-.31-4.05-.97-5.82-1.99-2.02-1.15-3.21-3.11-4.61-4.86-1.71-2.15-3.64-4.14-5.66-5.98-2.02-1.8-4.36-3.39-7.1-3.67-1.96-.19-4.17.19-5.88,1.18-1.8,1.03-3.45,1.46-5.54,1.28-.31-.03-.59-.12-.9-.19,5.48-15.37,15.84-29.38,27.95-39.43,9.96-8.25,22-15.93,35.36-15.93.56,0,1.12.03,1.71.06,1.15.03,2.99.06,3.89.96.03.03.65.81.53.81h.31c4.17,0,8.5,2.02,10.55,5.73.47.84.84,1.68,1.18,2.58,6.1,15.53,15.9,30.56,31.5,37.91.22.09.47.19.72.28-1.74,2.55-4.2,4.54-6.75,6.22-1.81,1.15-3.67,2.46-5.82,3.02-2.4.65-4.86.03-7.25-.31-9.9-1.46-19.58.81-26.77,8-2.65,2.65-6.35,3.95-10.15,3.95,0,0,4.3,1.62,7.19,1.12-1.77,4.11-2.71,8.28-3.67,12.6-.87,4.11-3.24,12.14-8.65,12.14,0,0,5.42-.12,8.65-3.17,0,0-.4,2.3-1.99,3.89,0,0,2.15-.5,3.77-2.61,0,.28,1.68,1.24,1.84,1.34.75.44,1.59.81,2.43,1,1.31.28,2.55.03,3.83-.16,1.34-.19,2.71-.37,4.05-.56,2.49-.4,4.92-.9,7.38-1.43,4.89-1.03,9.84-2.3,14.29-4.64,1.59-.84,3.08-1.77,4.45-2.89.44-.37.84-.75,1.24-1.12,2.83-2.74,5.07-6.04,6.91-9.52.56-1.06,1.03-2.24,1.77-3.21.87-1.06,2.21-1.84,3.42-2.4-2.33-.44-5.01,1.53-5.01,1.53-.4-.22-.12-2.05-.06-2.43.16-.78.44-1.52.75-2.27,1.12-2.49,2.86-4.67,4.73-6.63.93-1,1.96-1.9,2.93-2.86.96-1,1.68-2.12,2.46-3.27.31-.53.62-1.28,1.03-1.68-6.47,6.54-14.22,6.19-14.22,6.19,2.37-1.31,6.29-8.03,7.31-9.8,2.02.93,4.08,1.74,6.19,2.43.25.09,2.71.78,2.71.78,3.49-2.46,8.15-5.17,12.51-5.2h.09c6.07,0,8.9,6.85,9.65,11.86.9,6.1-.22,12.29-2.43,17.99Zm-114.78,3.77c.84,3.55,2.99,6.07,4.79,5.63.12-.03.22-.12.31-.16.28,1.12.5,2.27.59,3.39.03.22.03.4.03.62-.65.81-1.4,1.37-2.3,1.62-3.67.93-7.87-3.73-9.37-10.46-1.09-4.86-.44-9.4,1.4-11.92,1.68,1.87,3.21,3.86,4.64,5.94-.5,1.37-.59,3.27-.09,5.32Zm-7.97-.16c1.68,7.5,6.75,12.64,11.36,11.45.87-.22,1.65-.68,2.37-1.28,0,1.21-.28,2.15-.78,2.74-.44.53-1.06.81-1.9.87-1.31.12-2.65-.25-3.95-.4-4.85-.62-9.43-1.24-13.57-4.08-3.42-2.33-6.32-5.57-7.97-9.4-.4-.93-.75-1.9-1-2.86-1.28-5.14-1.06-11.76,3.27-15.44,4.54-3.8,9.49,1.15,12.67,4.23.37.37.75.78,1.15,1.18-2.05,2.96-2.8,7.84-1.65,12.98Zm62-6.22c-.44,7.1,3.17,13.1,8.06,13.45,4.89.31,9.18-5.2,9.62-12.29.22-4.05-.87-7.69-2.71-10.18,1.93.09,3.89-.03,5.85-.59.53-.16.81.03.93.19.81.81.65,2.46.62,3.45-.09,1.77-.37,3.55-.68,5.26-.59,3.05-1.37,6.07-2.8,8.81-1.81,3.49-4.89,5.63-8.34,7.28-4.05,1.93-8.34,3.3-12.7,4.17-2.68.56-5.35,1.03-8.06,1.37-.72.09-1.52.25-2.33.37-1.59.19-3.21.19-4.48-.81-.68-.56-1.18-1.46-1.4-2.55-.12-.65-.22-1.37-.25-2.12-.37-8.78,4.14-17.68,11.3-22.13,2.27-1.43,4.82-2.43,7.53-3.02,1.28-.28,2.52-.4,3.8-.47-2.18,2.21-3.73,5.73-3.95,9.8Zm8.62-9.65c.5.06,1.03.12,1.52.19.28.03.56.06.84.09,3.11,1.31,5.26,6.07,4.92,11.61-.37,6.35-3.86,11.3-7.75,11.02-3.92-.25-6.78-5.6-6.38-11.95.34-5.88,3.33-10.49,6.85-10.95Z"/>
    <path class="cls-1" d="m241.35,254.34c0,13.81-3.4,17.21-17.21,17.21,13.81,0,17.21,3.4,17.21,17.21,0-13.81,3.4-17.21,17.21-17.21-13.81,0-17.21-3.4-17.21-17.21Z"/>
    <path class="cls-1" d="m227.31,274.61c0,7.85-1.93,9.79-9.79,9.79,7.85,0,9.79,1.93,9.79,9.79,0-7.85,1.93-9.79,9.79-9.79-7.85,0-9.79-1.93-9.79-9.79Z"/>
  </g>
</svg>